<?xml version="1.0" ?><!DOCTYPE svg  PUBLIC '-//W3C//DTD SVG 1.1//EN'  'http://www.w3.org/Graphics/SVG/1.1/DTD/svg11.dtd'><svg enable-background="new 0 0 32 32" height="32px" version="1.1" viewBox="0 0 32 32" width="32px" xml:space="preserve" xmlns="http://www.w3.org/2000/svg" xmlns:xlink="http://www.w3.org/1999/xlink"><g id="listing_search_magnifier_magnifying_glass_loupe"><g><g id="tax_x2C__duty_x2C__charge_x2C__percent_1_"><g id="white_paper_1_"><g id="digital_key_1_"><g><g><g><path d="M30.5,6C30.776,6,31,5.776,31,5.5v-1C31,3.121,29.879,2,28.5,2h-1C27.224,2,27,2.224,27,2.5          S27.224,3,27.5,3h1C29.327,3,30,3.673,30,4.5v1C30,5.776,30.224,6,30.5,6z" fill="#263238"/></g></g><g><g><path d="M1,27.5v-1C1,26.224,1.224,26,1.5,26h21c0.276,0,0.5,0.224,0.5,0.5v1c0,0.827,0.673,1.5,1.5,1.5          c0.276,0,0.5,0.224,0.5,0.5S24.776,30,24.5,30h-21C2.121,30,1,28.879,1,27.5z M22,27.5V27H2v0.5C2,28.327,2.673,29,3.5,29          h19.001C22.187,28.582,22,28.063,22,27.5z" fill="#263238"/></g></g></g></g></g></g></g><g><g><g><g><g><path d="M22.011,18.01c-0.195,0.196-0.195,0.512,0,0.708l1.414,1.414c0.195,0.195,0.512,0.195,0.707,0        s0.195-0.512,0-0.707l-1.414-1.415C22.522,17.814,22.206,17.814,22.011,18.01z" fill="#263238"/></g></g><g><g><path d="M17,21c-4.411,0-8-3.589-8-8s3.589-8,8-8c1.66,0,3.252,0.504,4.605,1.458        c0.226,0.158,0.28,0.471,0.121,0.696c-0.159,0.226-0.472,0.281-0.697,0.12C19.846,6.44,18.453,6,17,6c-3.86,0-7,3.141-7,7        s3.14,7,7,7s7-3.141,7-7c0-0.719-0.108-1.427-0.322-2.105c-0.083-0.264,0.063-0.545,0.327-0.627        c0.264-0.081,0.544,0.063,0.627,0.326C24.876,11.37,25,12.18,25,13C25,17.411,21.411,21,17,21z" fill="#263238"/></g></g><g><path d="M25,20c0.256,0,0.512,0.098,0.707,0.293l4,4c0.391,0.391,0.391,1.023,0,1.414       C29.512,25.902,29.256,26,29,26s-0.512-0.098-0.707-0.293l-4-4c-0.391-0.391-0.391-1.023,0-1.414       C24.488,20.098,24.744,20,25,20L25,20z M25,19c-0.534,0-1.036,0.208-1.414,0.586S23,20.466,23,21s0.208,1.036,0.586,1.414l4,4       C27.964,26.792,28.466,27,29,27s1.036-0.208,1.414-0.586S31,25.534,31,25s-0.208-1.036-0.586-1.414l-4-4       C26.036,19.208,25.534,19,25,19L25,19z" fill="#263238"/></g></g></g><g><g><g><g><path d="M16.5,16c-0.004,0-0.008,0-0.012,0c-0.145-0.004-0.28-0.069-0.373-0.18l-2.5-3        c-0.176-0.213-0.147-0.528,0.064-0.705c0.213-0.176,0.527-0.147,0.705,0.064l2.133,2.561l7.114-7.578        c0.188-0.204,0.504-0.216,0.706-0.031c0.203,0.187,0.217,0.503,0.03,0.707l-7.499,8C16.773,15.941,16.641,16,16.5,16z" fill="#263238"/></g></g></g></g></g><g><path d="M28.5,3C28.776,3,29,2.776,29,2.5S28.776,2,28.5,2h-20C7.121,2,6,3.121,6,4.5v20C6,24.776,6.224,25,6.5,25    S7,24.776,7,24.5v-20C7,3.673,7.673,3,8.5,3h18.001C26.187,3.418,26,3.938,26,4.5v13c0,0.276,0.224,0.5,0.5,0.5l0,0    c0.276,0,0.5-0.224,0.5-0.5v-13C27,3.673,27.673,3,28.5,3z" fill="#263238"/><path d="M24.5,29h-1.75v1h1.75c1.379,0,2.5-1.121,2.5-2.5l0,0c0-0.276-0.224-0.5-0.5-0.5l0,0    c-0.276,0-0.5,0.224-0.5,0.5l0,0C26,28.327,25.327,29,24.5,29z" fill="#263238"/></g></g></svg>