<?xml version="1.0" ?><svg height="64" id="svg8" version="1.1" viewBox="0 0 16.933333 16.933334" width="64" xmlns="http://www.w3.org/2000/svg" xmlns:cc="http://creativecommons.org/ns#" xmlns:dc="http://purl.org/dc/elements/1.1/" xmlns:inkscape="http://www.inkscape.org/namespaces/inkscape" xmlns:rdf="http://www.w3.org/1999/02/22-rdf-syntax-ns#" xmlns:sodipodi="http://sodipodi.sourceforge.net/DTD/sodipodi-0.dtd" xmlns:svg="http://www.w3.org/2000/svg"><defs id="defs2"/><g id="layer1"><path d="m 52.009766,0 c -7.144543,0 -11.982511,6.0323205 -11.994141,11.986328 -0.0079,4.000855 1.689745,6.500243 3.236328,8.332031 0.773291,0.915896 1.500897,1.689057 1.994141,2.421875 0.287471,0.427082 0.592975,0.830618 0.71875,1.261719 -0.493913,0.07016 -0.940501,0.350183 -0.955078,0.990235 0.0021,0.549355 0.438921,0.995905 1,0.998046 -0.04883,1.311461 -0.0039,2.671422 -0.0039,4 0,0.837498 0.388132,1.566362 0.923829,2.097657 0.535691,0.531294 1.257069,0.90039 2.082031,0.90039 v 1.00586 c 0,1.645051 1.352996,2.996093 2.998047,2.996093 1.64505,0 3.003906,-1.35104 3.003906,-2.996093 v -1.00586 c 0.824961,0 1.538527,-0.369098 2.074219,-0.90039 0.535672,-0.531296 0.923828,-1.26016 0.923828,-2.097657 0.0016,-1.326309 0.01134,-2.68731 0,-4 0.55912,0.0022 1.001755,-0.445644 1.003906,-0.998046 0.0018,-0.668087 -0.460828,-0.925661 -0.957031,-0.994141 0.127937,-0.430278 0.433727,-0.831443 0.720703,-1.257813 0.493243,-0.732818 1.220848,-1.505979 1.994141,-2.421875 C 62.320016,18.486571 64,16.090429 64,11.986328 64,5.9774659 59.309258,0 52.009766,0 Z M 2.5839844,1.984375 C 1.1688875,1.984375 0,3.1552168 0,4.5703125 V 15.402344 c 0,1.415096 1.1688875,2.582031 2.5839844,2.582031 H 13.414062 C 14.82916,17.984375 16,16.81744 16,15.402344 v -3.080078 c 0.0022,-0.552406 -0.443689,-1.001753 -0.996094,-1.003907 -0.552404,0.0022 -0.998254,0.451501 -0.996094,1.003907 v 3.080078 c 0,0.341461 -0.252295,0.582031 -0.59375,0.582031 H 2.5839844 C 2.2425041,15.984375 2,15.743808 2,15.402344 V 4.5703125 C 2,4.2288511 2.2425211,3.9863281 2.5839844,3.9863281 H 10.335938 C 10.889872,3.9852551 11.337231,3.5343955 11.333984,2.9804688 11.331834,2.4303539 10.886052,1.9854455 10.335938,1.984375 Z M 52.009766,2 C 58.05882,2 62,6.9370661 62,11.986328 c 0,3.298312 -1.308591,5.332721 -2.755859,7.046875 -0.723636,0.857077 -1.497503,1.648798 -2.126953,2.583985 -0.46296,0.687818 -0.936267,1.477515 -1.105469,2.371093 l -8.001953,0.002 C 47.84268,23.096611 47.369208,22.305006 46.90625,21.617188 46.2768,20.682001 45.504878,19.89028 44.78125,19.033203 43.333986,17.319049 42.024801,15.236589 42.009766,11.986328 41.987088,7.115543 45.968864,2.0000004 52.009766,2 Z m 1.001953,1.9785156 c -2.430516,-0.017386 -4.664161,1.3513638 -5.882813,3.5078125 -0.276208,0.4950917 -0.09763,1.1201051 0.398438,1.3945313 0.495091,0.2762343 1.120103,0.097655 1.394531,-0.3984375 0.854494,-1.5348767 2.412753,-2.4570305 4.091797,-2.4570313 0.565296,-0.00228 1.021565,-0.4620466 1.019531,-1.0273437 -0.0033,-0.5614851 -0.42783,-1.0195317 -1.021484,-1.0195313 z M 13.001953,4.984375 c -0.26623,3.89e-5 -0.521282,0.1061383 -0.708984,0.2949219 L 8.0039062,9.5683594 5.7089844,7.2792969 c -0.3901418,-0.3879099 -1.0219715,-0.3879099 -1.4121094,0 -0.39312,0.3910337 -0.39312,1.026935 0,1.4179687 l 2.9980469,2.9960934 c 0.3910563,0.393063 1.0269124,0.393063 1.4179687,0 L 13.710938,6.6972656 c 0.393116,-0.3910333 0.393116,-1.026935 0,-1.4179687 C 13.523246,5.090517 13.268168,4.9844143 13.001953,4.984375 Z m 6.003906,0 C 18.449638,4.9811148 17.997819,5.432055 18,5.9882812 c 0.0022,0.5531709 0.452691,0.9993389 1.005859,0.9960938 h 9 C 28.55826,6.986535 29.007611,6.5406857 29.009766,5.9882812 29.011965,5.432823 28.561318,4.9822018 28.005859,4.984375 Z m 0,4 C 18.449638,8.981114 17.997819,9.4320554 18,9.9882812 c 0.0022,0.5531718 0.452691,0.9993388 1.005859,0.9960938 h 13 c 0.549355,-0.0021 0.995904,-0.446739 0.998047,-0.9960938 0.0022,-0.552404 -0.445641,-1.0017522 -0.998047,-1.0039062 z m 27.003907,1.0019531 c -0.552405,-4e-7 -1,0.4475969 -1,0.9999999 0,0.552403 0.447595,1 1,1 0.5524,0 1,-0.447597 1,-1 0,-0.552403 -0.4476,-1.0000003 -1,-0.9999999 z m 12.060546,0.9980469 c -0.264793,-0.01516 -0.524669,0.07543 -0.722656,0.251953 l -4.960937,4.416016 -2.710938,-2.416016 c -0.414463,-0.364195 -1.045258,-0.323992 -1.410156,0.08984 -0.365329,0.411583 -0.329623,1.042645 0.08008,1.410156 l 3.376953,2.998047 c 0.37889,0.336457 0.949235,0.336457 1.328125,0 l 5.625,-5 c 0.410926,-0.367695 0.446734,-0.998303 0.08008,-1.410156 -0.174463,-0.199726 -0.420957,-0.321921 -0.685547,-0.339844 z m -39.064453,2.001953 c -0.556221,-0.0033 -1.00804,0.449633 -1.005859,1.00586 0.0022,0.55317 0.452691,0.999338 1.005859,0.996093 h 18 c 0.552405,0.0022 1.001752,-0.443689 1.003907,-0.996093 0.0022,-0.55546 -0.448448,-1.008033 -1.003907,-1.00586 z m 11.996094,7 c -3.854967,0 -6.998047,3.152845 -6.998047,7.007813 0,2.07017 0.907038,3.935287 2.34375,5.21875 -3.628781,0.846152 -6.345703,4.037888 -6.345703,7.863281 v 8.912109 H 11 c -0.552382,0.0022 -0.998199,0.45152 -0.996094,1.003907 v 5.90625 c 3.4e-5,0.345977 0.178712,0.667156 0.472656,0.849609 L 16,60.191406 v 2.802735 C 15.9968,63.550336 16.447703,64.002132 17.003906,64 h 28.00586 c 0.553152,-0.0022 0.999283,-0.452718 0.996093,-1.005859 v -2.765625 l 5.509766,-3.199219 c 0.306973,-0.180019 0.495051,-0.509387 0.494141,-0.865235 v -6.171874 c 0.0021,-0.552387 -0.443712,-1.0017 -0.996094,-1.003907 L 39,49 l -0.0078,-3.335938 c 0.257877,0.333507 0.500448,0.333708 0.75,0.335938 H 47 c 1.672978,0 3,-1.328523 3,-3 0,-1.671481 -1.327022,-3 -3,-3 l -3.712891,0.0078 C 41.129392,37.947626 39.42221,34.6593 37.234375,33.011719 36.779399,32.677181 36.250536,32.421894 35.621094,32.25 c 1.462552,-1.284462 2.388668,-3.165959 2.388672,-5.255859 -4e-6,-3.854968 -3.152846,-7.007813 -7.007813,-7.007813 z m -28.4179686,2 C 1.1688875,21.986328 0,23.157171 0,24.572266 v 10.83789 c 0,1.415096 1.1688875,2.583985 2.5839844,2.583985 H 13.414062 C 14.82916,37.994141 16,36.825253 16,35.410156 v -3.085937 c -0.0021,-0.549355 -0.446736,-0.995906 -0.996094,-0.998047 -0.549354,0.0021 -0.993951,0.448692 -0.996094,0.998047 v 3.085937 c 0,0.341462 -0.252295,0.583985 -0.59375,0.583985 H 2.5839844 C 2.2425041,35.994141 2,35.75162 2,35.410156 v -10.83789 c 0,-0.341462 0.2425211,-0.583985 0.5839844,-0.583985 h 7.7519536 c 0.550116,-0.0011 0.995896,-0.445979 0.998046,-0.996093 0.0022,-0.553165 -0.44488,-1.004784 -0.998046,-1.00586 z m 28.4179686,0 c 2.773856,0 5.007813,2.233957 5.007813,5.007813 0,2.773856 -2.233957,4.996093 -5.007813,4.996093 -2.773852,0 -4.998047,-2.222237 -4.998047,-4.996093 0,-2.773856 2.224195,-5.007813 4.998047,-5.007813 z m -18,3 c -0.26623,3.9e-5 -0.521282,0.106142 -0.708984,0.294922 L 8.0039062,29.576172 5.7089844,27.28125 c -0.3901418,-0.38791 -1.0219715,-0.38791 -1.4121094,0 -0.3931162,0.391033 -0.3931162,1.026935 0,1.417969 l 2.9980469,2.996093 c 0.3910563,0.393063 1.0269124,0.393063 1.4179687,0 l 4.9980474,-4.998046 c 0.391808,-0.390814 0.391808,-1.025203 0,-1.416016 -0.187692,-0.18878 -0.44277,-0.294882 -0.708985,-0.294922 z m 15.261719,9.007813 h 5.191406 c 1.428367,0 2.062501,0.233461 2.597656,0.626953 0.535155,0.393492 1.087924,0.94099 1.873047,1.898437 l 4.078125,5.09375 c 0.190904,0.230022 0.511632,0.395667 0.810547,0.394531 L 47,42 c 0.625527,0 0.998047,0.429034 0.998047,1 0,0.570969 -0.372513,1 -0.998047,1 h -6.851562 l -2.820313,-2.755859 c -0.394586,-0.388063 -1.029,-0.381799 -1.416016,0.01367 -0.389375,0.394812 -0.383109,1.032691 0.01367,1.419922 L 37.005859,43.828125 37,49 H 27 l -0.0039,-5.996094 C 26.998279,42.451566 26.552404,42.002154 26,42 25.444542,41.9978 24.993921,42.448444 24.996094,43.003906 L 25,49 22.001953,48.988281 v -8.912109 c 0,-3.374029 2.762961,-6.082033 6.261719,-6.082031 z" id="path850" style="opacity:1;fill:#000000;fill-opacity:1;stroke:none;stroke-width:2;stroke-linecap:round;stroke-linejoin:round;stroke-miterlimit:4;stroke-dasharray:none;stroke-dashoffset:0;stroke-opacity:1" transform="scale(0.26458334)"/></g></svg>