<?xml version="1.0" ?><!DOCTYPE svg  PUBLIC '-//W3C//DTD SVG 1.1//EN'  'http://www.w3.org/Graphics/SVG/1.1/DTD/svg11.dtd'><svg enable-background="new 0 0 128 128" id="Слой_1" version="1.1" viewBox="0 0 128 128" xml:space="preserve" xmlns="http://www.w3.org/2000/svg" xmlns:xlink="http://www.w3.org/1999/xlink"><g><path d="M78.7,106.6v8l0,0c-4.2,14.8-25.2,14.8-29.4,0l0,0l0-8" fill="#F7EBDE"/></g><g opacity="0.15"><path d="M49.3,112.7c6.1,3.4,11.4,4.1,14.7,4.1c3.8,0,8.9-0.8,14.7-4v-6.2H49.3V112.7z" fill="#62345B"/></g><g><g><path d="M105.9,125.6l-27.2-11.1l0,0c-1.8,6.3-6.7,9.9-12,10.8c-0.2,0.1-0.4,0.2-0.6,0.2L105.9,125.6z" fill="#CFCDD1"/></g></g><g><g><path d="M49.3,114.6l-27.2,11.1h39.7c-0.2-0.1-0.4-0.1-0.6-0.2C55.9,124.5,51.1,120.9,49.3,114.6z" fill="#CFCDD1"/></g></g><g><path d="M64,127.2C64,127.2,64,127.2,64,127.2c-7.7,0-14-4.8-16.2-12.2l-0.1-0.2v-8.2h3v7.7   c2.2,7.2,8.5,9.8,13.2,9.8c4.8,0,11-2.6,13.2-9.8v-7.7h3v8.2l-0.1,0.2C78,122.4,71.7,127.2,64,127.2z" fill="#B09AAC"/></g><g><g><g><path d="M103.7,54.9C103.7,22.6,87.6,6,64,6S24.3,22.6,24.3,54.9c-7.7,0.6-5.9,17.9,2.8,16.9     c11.1,30.9,26.5,39,37,39s25.9-8.2,37-39C109.7,72.8,111.4,55.5,103.7,54.9z" fill="#F7EBDE"/></g><g opacity="0.1"><path d="M108.4,60.1C108.4,60.1,108.4,60,108.4,60.1c0-0.3-0.1-0.5-0.2-0.7c0,0,0,0,0-0.1     c-0.1-0.2-0.1-0.4-0.2-0.6c0,0,0-0.1,0-0.1c-0.1-0.2-0.1-0.4-0.2-0.5c0,0,0-0.1,0-0.1c-0.1-0.2-0.2-0.3-0.2-0.5     c0,0,0-0.1-0.1-0.1c-0.1-0.1-0.2-0.3-0.3-0.4c0-0.1-0.1-0.1-0.1-0.2c-0.1-0.1-0.2-0.2-0.3-0.3c0-0.1-0.1-0.1-0.1-0.2     c-0.1-0.1-0.2-0.2-0.3-0.3c-0.1-0.1-0.1-0.1-0.2-0.2c-0.1-0.1-0.2-0.1-0.3-0.2c-0.1,0-0.1-0.1-0.2-0.1c-0.1-0.1-0.2-0.1-0.3-0.2     c-0.1,0-0.2-0.1-0.2-0.1c-0.1-0.1-0.3-0.1-0.4-0.1c-0.1,0-0.1-0.1-0.2-0.1c-0.2,0-0.5-0.1-0.7-0.1C103.7,22.6,87.6,6,64,6     c-0.8,0-1.7,0-2.5,0.1c0,0-0.1,0-0.1,0c-0.8,0-1.6,0.1-2.4,0.2c0,0,0,0,0,0c0,0,0,0,0,0C38.2,8.5,24.3,24.9,24.3,54.9     c-3.8,0.3-5.3,4.8-4.7,9.1h68.9c4,0,6.9,4,5.6,7.8c0,0,0,0,0,0C84.6,98,70.3,109,59,110.2c1.8,0.4,3.4,0.6,5,0.6     c10.5,0,25.9-8.2,37-39C106.7,72.4,109.4,65.3,108.4,60.1z" fill="#62345B"/></g><g><path d="M104.2,55c-0.2,0-0.3,0-0.5-0.1C103.7,22.6,87.6,6,64,6C40.8,6,24.9,22,24.3,53.2     C40.4,15.1,65.1,66.3,104.2,55z" fill="#DEBAAB"/></g><g><path d="M22.1,127.1c-0.6,0-1.2-0.4-1.4-0.9c-0.3-0.8,0.1-1.6,0.8-2l27.2-11.1c0.8-0.3,1.6,0.1,2,0.8     c0.3,0.8-0.1,1.6-0.8,2L22.7,127C22.5,127.1,22.3,127.1,22.1,127.1z" fill="#B09AAC"/></g><g><path d="M105.9,127.1c-0.2,0-0.4,0-0.6-0.1L78.1,116c-0.8-0.3-1.1-1.2-0.8-2c0.3-0.8,1.2-1.1,2-0.8l27.2,11.1     c0.8,0.3,1.1,1.2,0.8,2C107.1,126.8,106.5,127.1,105.9,127.1z" fill="#B09AAC"/></g><g><g><path d="M26.3,73.3c-2.4,0-4.6-1.2-6.1-3.3c-2.5-3.5-3.1-9.1-1.3-12.8c1.1-2.3,2.9-3.7,5.3-3.8l0.2,3      c-1.2,0.1-2.1,0.8-2.8,2.1c-1.3,2.8-0.8,7.1,1,9.7c1.1,1.5,2.5,2.2,4.2,2.1l0.3,3C26.9,73.3,26.6,73.3,26.3,73.3z" fill="#B09AAC"/></g><g><path d="M101.7,73.3c-0.3,0-0.6,0-0.9,0l0.3-3c1.7,0.2,3.1-0.5,4.2-2.1c1.9-2.6,2.3-7,1-9.7      c-0.6-1.3-1.5-2-2.8-2.1l0.2-3c2.3,0.2,4.2,1.5,5.3,3.8c1.7,3.7,1.2,9.3-1.3,12.8C106.2,72.2,104.1,73.3,101.7,73.3z" fill="#B09AAC"/></g><g><path d="M64,112.3c-7.2,0-25.4-3.9-38.4-40l0-0.1c-1.3-4.8-2.8-10.3-2.8-17.3C22.8,23.3,38.2,4.5,64,4.5      c25.8,0,41.2,18.8,41.2,50.4c0,4.7-1.1,12.5-2.9,17.4C89.4,108.4,71.2,112.3,64,112.3z M28.5,71.3c12.3,34.3,29,38,35.5,38      c6.6,0,23.3-3.7,35.6-38c1.7-4.5,2.7-12,2.7-16.4c0-29.7-14.3-47.4-38.2-47.4c-23.9,0-38.2,17.7-38.2,47.4      C25.8,61.4,27.1,66.5,28.5,71.3z" fill="#B09AAC"/></g></g><g><path d="M92.5,58.2c-13,0-24.3-5.9-33.8-10.8C49.9,42.7,42.2,38.7,36,41c-4.3,1.6-7.9,6.3-11,14.4l-2.8-1.1     c3.5-8.9,7.6-14.2,12.8-16.1c7.4-2.8,15.6,1.5,25.2,6.5c12.5,6.5,26.7,13.9,43.8,8.8l0.9,2.9C100.6,57.6,96.5,58.2,92.5,58.2z" fill="#B09AAC"/></g><g><path d="     M66.7,126" fill="none" stroke="#62345B" stroke-linecap="round" stroke-linejoin="round" stroke-miterlimit="10" stroke-width="3"/></g></g></g><g><g><path d="M21.7,49.3c1.7-0.5,2.9-2,2.9-3.8v-0.9c0-16,9.6-29.8,23.3-36V5.9c0-2.2,1.8-3.9,3.9-3.9h7.8h4.3h4.5h7.9    c2.2,0,3.9,1.8,3.9,3.9v2.7l0.1,0c13.7,6.2,23.2,20,23.2,36v0.9c0,1.8,1.2,3.3,2.9,3.8l2.7,0.8V58h0c0,0-90,0-90,0h0v-7.9    L21.7,49.3z" fill="#84D3EB"/></g><g><g opacity="0.15"><path d="M106.3,49.3c-1.7-0.5-2.9-2-2.9-3.8v-0.9c0-16-9.5-29.8-23.2-36l-0.1,0V5.9c0-2.2-1.8-3.9-3.9-3.9h-1     c2.2,0,3.9,1.8,3.9,3.9l1,2.7l-0.9,0c13.7,6.2,17.2,20,17.2,36v0.9c0,1.8,1.2,3.3,2.9,3.8l2.7,0.8V58c4.4,0,7,0,7,0h0v-7.9     L106.3,49.3z" fill="#62345B"/></g></g><g><path d="M109,59.5H19c-0.8,0-1.5-0.7-1.5-1.5v-7.9c0-0.7,0.4-1.3,1.1-1.4l2.7-0.8c1-0.3,1.8-1.3,1.8-2.4v-0.9    c0-16.1,9.5-30.8,24.2-37.4c0.8-0.3,1.6,0,2,0.8c0.3,0.8,0,1.6-0.8,2C34.8,16.1,26,29.7,26,44.6v0.9c0,2.4-1.6,4.6-4,5.2l-1.6,0.5    v5.3h87v-5.3l-1.6-0.5c-2.3-0.7-4-2.8-4-5.2v-0.9c0-14.9-8.8-28.5-22.3-34.6c-0.8-0.3-1.1-1.2-0.7-2c0.3-0.8,1.2-1.1,2-0.7    C95.5,13.9,105,28.6,105,44.6v0.9c0,1.1,0.7,2.1,1.8,2.4l2.7,0.8c0.6,0.2,1.1,0.8,1.1,1.4V58C110.5,58.8,109.8,59.5,109,59.5z" fill="#62345B"/></g><g><path d="M80.2,17.2c-0.8,0-1.5-0.7-1.5-1.5V5.9c0-1.3-1.1-2.4-2.4-2.4H51.8c-1.3,0-2.4,1.1-2.4,2.4v9.7    c0,0.8-0.7,1.5-1.5,1.5s-1.5-0.7-1.5-1.5V5.9c0-3,2.4-5.4,5.4-5.4h24.5c3,0,5.4,2.4,5.4,5.4v9.7C81.7,16.5,81,17.2,80.2,17.2z" fill="#62345B"/></g><g><path d="M63.9,27.5c-0.8,0-1.5-0.7-1.5-1.5V2c0-0.8,0.7-1.5,1.5-1.5s1.5,0.7,1.5,1.5v24    C65.4,26.8,64.7,27.5,63.9,27.5z" fill="#62345B"/></g><g><path d="M91.6,50H36.4c-0.8,0-1.5-0.7-1.5-1.5s0.7-1.5,1.5-1.5h55.3c0.8,0,1.5,0.7,1.5,1.5S92.5,50,91.6,50z" fill="#62345B"/></g></g></svg>