<?xml version="1.0" encoding="UTF-8" standalone="no"?>
<svg width="65px" height="65px" viewBox="0 0 65 65" version="1.1" xmlns="http://www.w3.org/2000/svg" xmlns:xlink="http://www.w3.org/1999/xlink" xmlns:sketch="http://www.bohemiancoding.com/sketch/ns">
    <!-- Generator: Sketch 3.0.3 (7891) - http://www.bohemiancoding.com/sketch -->
    <title>Tool</title>
    <desc>Created with Sketch.</desc>
    <defs></defs>
    <g id="Page-1" stroke="none" stroke-width="1" fill="none" fill-rule="evenodd" sketch:type="MSPage">
        <g id="Tool" sketch:type="MSLayerGroup" transform="translate(2.000000, 1.000000)" stroke="#6B6C6E" stroke-width="2">
            <path d="M24.6,18.1 C26.5,13.4 28,10.2 21.8,4 C19.2,1.4 15.7,0.1 12.3,0.2 L17.4,5.3 L14.7,15.3 L4.7,18 L-0.4,12.9 C-0.5,16.3 0.8,19.7 3.4,22.4 C9.6,28.6 12.8,27.2 17.5,25.2" id="Shape" sketch:type="MSShapeGroup"></path>
            <path d="M36.6,44.3 C34.7,49 33.2,52.1 39.4,58.4 C42,61 45.4,62.3 48.9,62.2 L44,57.3 L46.7,47.3 L56.7,44.6 L61.6,49.5 C61.7,46.1 60.4,42.6 57.8,40 C51.6,33.8 48.4,35.2 43.8,37.1" id="Shape" sketch:type="MSShapeGroup"></path>
            <path d="M24.8,32.5 L15.5,23.1" id="Shape" sketch:type="MSShapeGroup"></path>
            <path d="M38.7,46.3 L29.2,36.8" id="Shape" sketch:type="MSShapeGroup"></path>
            <path d="M39.2,32.7 L45.8,39.3" id="Shape" sketch:type="MSShapeGroup"></path>
            <path d="M22.5,16.1 L28.8,22.3" id="Shape" sketch:type="MSShapeGroup"></path>
            <path d="M3.1,61.5 L0.3,58.7 L5.9,50.2 L9.5,48.1 L27.1,30.4 L31.4,34.7 L13.7,52.4 L11.6,55.9 L3.1,61.5 Z" id="Shape" sketch:type="MSShapeGroup"></path>
            <path d="M39.2,32.6 L61.1,10.7 C61.9,9.9 61.9,8.7 61.1,7.9 L54,0.8 C53.2,2.84217094e-13 52,2.84217094e-13 51.2,0.8 L29.3,22.7 C28.7,23.3 28.6,24.2 28.9,25 C28.5,25.1 25.7,26.3 25.7,26.3 C24.9,27.1 24.9,28.3 25.7,29.1 L32.8,36.2 C33.6,37 34.8,37 35.6,36.2 C35.6,36.2 36.8,33.4 36.9,33 C37.6,33.3 38.5,33.2 39.2,32.6 L39.2,32.6 Z" id="Shape" sketch:type="MSShapeGroup"></path>
            <path d="M51.9,5.7 L34.2,23.4" id="Shape" sketch:type="MSShapeGroup"></path>
            <path d="M56.1,9.9 L38.5,27.6" id="Shape" sketch:type="MSShapeGroup"></path>
        </g>
    </g>
</svg>